<svg width="23" height="21" viewBox="0 0 23 21" fill="none" xmlns="http://www.w3.org/2000/svg">
<path id="Vector 365" d="M11.2217 3.17676L10.8681 3.53031L11.2217 3.88386L11.5752 3.53031L11.2217 3.17676ZM11.2217 19.6768L10.8681 20.0303C11.0634 20.2256 11.38 20.2256 11.5752 20.0303L11.2217 19.6768ZM19.8391 11.0593L19.4856 10.7058L19.8391 11.0593ZM11.5752 2.8232L11.2078 2.45577L10.5007 3.16288L10.8681 3.53031L11.5752 2.8232ZM2.25069 11.4129L10.8681 20.0303L11.5752 19.3232L2.9578 10.7058L2.25069 11.4129ZM11.5752 20.0303L20.1927 11.4129L19.4856 10.7058L10.8681 19.3232L11.5752 20.0303ZM11.2356 2.45577L10.8681 2.8232L11.5752 3.53031L11.9427 3.16288L11.2356 2.45577ZM19.9135 2.19305C17.4064 -0.0275699 13.6038 0.0875548 11.2356 2.45577L11.9427 3.16288C13.937 1.16857 17.1392 1.07163 19.2505 2.94163L19.9135 2.19305ZM20.1927 11.4129C22.7726 8.8329 22.6449 4.61223 19.9135 2.19305L19.2505 2.94163C21.5506 4.97886 21.6582 8.53314 19.4856 10.7058L20.1927 11.4129ZM2.52983 2.19305C-0.201505 4.61223 -0.329288 8.8329 2.25069 11.4129L2.9578 10.7058C0.785165 8.53314 0.892773 4.97886 3.19286 2.94163L2.52983 2.19305ZM11.2078 2.45577C8.83958 0.0875548 5.03697 -0.0275697 2.52983 2.19305L3.19286 2.94163C5.30416 1.07163 8.50639 1.16857 10.5007 3.16288L11.2078 2.45577Z" fill="black" fill-opacity="0.5"/>
</svg>
