<svg width="24" height="22" viewBox="0 0 24 22" fill="none" xmlns="http://www.w3.org/2000/svg">
<path id="Vector 365" d="M12 3.75L11.2929 4.45711L12 5.16421L12.7071 4.45711L12 3.75ZM12 20.25L11.2929 20.9571C11.6834 21.3476 12.3166 21.3476 12.7071 20.9571L12 20.25ZM20.6174 11.6326L19.9103 10.9255L20.6174 11.6326ZM12.7071 3.04289L12.3397 2.67546L10.9255 4.08968L11.2929 4.45711L12.7071 3.04289ZM2.67546 12.3397L11.2929 20.9571L12.7071 19.5429L4.08967 10.9255L2.67546 12.3397ZM12.7071 20.9571L21.3245 12.3397L19.9103 10.9255L11.2929 19.5429L12.7071 20.9571ZM11.6603 2.67546L11.2929 3.04289L12.7071 4.45711L13.0745 4.08968L11.6603 2.67546ZM21.0234 2.39199C18.3183 -0.00392535 14.2155 0.120288 11.6603 2.67546L13.0745 4.08968C14.8819 2.28232 17.7839 2.19447 19.6973 3.88917L21.0234 2.39199ZM21.3245 12.3397C24.1082 9.55602 23.9703 5.00215 21.0234 2.39199L19.6973 3.88917C21.7818 5.73541 21.8793 8.9565 19.9103 10.9255L21.3245 12.3397ZM2.97663 2.39199C0.0296762 5.00215 -0.108195 9.55602 2.67546 12.3397L4.08967 10.9255C2.12071 8.9565 2.21823 5.73541 4.3027 3.88917L2.97663 2.39199ZM12.3397 2.67546C9.7845 0.120288 5.6817 -0.00392509 2.97663 2.39199L4.3027 3.88917C6.21608 2.19447 9.11811 2.28232 10.9255 4.08968L12.3397 2.67546Z" fill="white" fill-opacity="0.5"/>
</svg>
